<svg width="200" height="50" viewBox="0 0 200 50" fill="none" xmlns="http://www.w3.org/2000/svg">
  <path d="M20 8H40C42.2091 8 44 9.79086 44 12V32C44 34.2091 42.2091 36 40 36H20C17.7909 36 16 34.2091 16 32V12C16 9.79086 17.7909 8 20 8Z" fill="#4F46E5"/>
  <rect x="22" y="14" width="16" height="2" rx="1" fill="white"/>
  <rect x="22" y="18" width="12" height="2" rx="1" fill="white"/>
  <rect x="22" y="22" width="14" height="2" rx="1" fill="white"/>
  <rect x="22" y="26" width="10" height="2" rx="1" fill="white"/>
  <path d="M56 14.8H60.392C62.056 14.8 63.272 15.208 64.04 16.024C64.808 16.824 65.192 17.944 65.192 19.384C65.192 20.824 64.808 21.944 64.04 22.744C63.272 23.544 62.056 23.944 60.392 23.944H56V14.8ZM60.344 22.408C61.496 22.408 62.336 22.152 62.864 21.64C63.392 21.112 63.656 20.352 63.656 19.36C63.656 18.368 63.392 17.616 62.864 17.104C62.336 16.576 61.496 16.312 60.344 16.312H57.512V22.408H60.344ZM67.7395 17.464H69.0355V18.608H69.0835C69.1875 18.288 69.3795 18.016 69.6595 17.792C69.9395 17.568 70.3075 17.456 70.7635 17.456C70.8835 17.456 70.9875 17.464 71.0755 17.48C71.1635 17.48 71.2435 17.496 71.3155 17.528V18.872C71.2275 18.824 71.1155 18.784 70.9795 18.752C70.8435 18.72 70.7155 18.704 70.5955 18.704C70.2355 18.704 69.9475 18.784 69.7315 18.944C69.5155 19.088 69.3635 19.296 69.2755 19.568C69.1875 19.824 69.1435 20.12 69.1435 20.456V23.944H67.7395V17.464ZM76.3043 17.464V18.776H74.8443V21.952C74.8443 22.192 74.8763 22.376 74.9403 22.504C75.0043 22.616 75.0843 22.696 75.1803 22.744C75.2923 22.776 75.4123 22.792 75.5403 22.792C75.6363 22.792 75.7483 22.784 75.8763 22.768C76.0043 22.736 76.1003 22.712 76.1643 22.696L76.4283 23.944C76.3163 23.992 76.1643 24.04 75.9723 24.088C75.7803 24.136 75.5643 24.168 75.3243 24.184C74.9323 24.216 74.5723 24.192 74.2443 24.112C73.9323 24.032 73.6843 23.888 73.5003 23.68C73.3163 23.456 73.2243 23.168 73.2243 22.816V18.776H72.1643V17.464H73.2243V15.776H74.8443V17.464H76.3043ZM78.8828 17.464H80.3988V18.608H80.4468C80.6308 18.16 80.9108 17.824 81.2868 17.6C81.6628 17.376 82.0708 17.264 82.5108 17.264C83.0388 17.264 83.5028 17.392 83.9028 17.648C84.3028 17.904 84.6068 18.28 84.8148 18.776C85.0228 19.272 85.1268 19.872 85.1268 20.576C85.1268 21.28 85.0228 21.88 84.8148 22.376C84.6068 22.872 84.3028 23.248 83.9028 23.504C83.5028 23.76 83.0388 23.888 82.5108 23.888C82.0868 23.888 81.6788 23.784 81.2868 23.576C80.9108 23.352 80.6308 23.016 80.4468 22.568H80.3988V26.392H78.8828V17.464ZM82.1028 22.576C82.5508 22.576 82.9028 22.416 83.1588 22.096C83.4148 21.76 83.5428 21.264 83.5428 20.608C83.5428 19.968 83.4148 19.48 83.1588 19.144C82.9028 18.808 82.5508 18.64 82.1028 18.64C81.6708 18.64 81.3188 18.816 81.0468 19.168C80.7748 19.504 80.6388 19.984 80.6388 20.608C80.6388 21.248 80.7748 21.736 81.0468 22.072C81.3188 22.408 81.6708 22.576 82.1028 22.576ZM87.0473 14.8H88.5633V23.944H87.0473V14.8ZM95.4711 17.464L94.0911 23.944H92.4471L90.3791 17.464H91.9911L93.2791 22.024H93.3271L94.6151 17.464H95.4711ZM101.384 23.944L99.496 21.16H97.992V23.944H96.48V14.8H100.752C101.808 14.8 102.632 15.08 103.224 15.64C103.816 16.2 104.112 16.936 104.112 17.848C104.112 18.584 103.928 19.192 103.56 19.672C103.192 20.136 102.656 20.456 101.952 20.632L104.04 23.944H101.384ZM97.992 19.84H100.584C101.112 19.84 101.504 19.72 101.76 19.48C102.032 19.24 102.168 18.896 102.168 18.448C102.168 18 102.032 17.664 101.76 17.44C101.504 17.2 101.112 17.08 100.584 17.08H97.992V19.84ZM113.235 17.464V23.944H111.819V22.936H111.771C111.619 23.24 111.379 23.488 111.051 23.68C110.723 23.856 110.347 23.944 109.923 23.944C109.395 23.944 108.939 23.824 108.555 23.584C108.171 23.328 107.883 22.968 107.691 22.504C107.499 22.04 107.403 21.496 107.403 20.872V17.464H108.915V20.624C108.915 21.088 109.019 21.448 109.227 21.704C109.451 21.944 109.763 22.064 110.163 22.064C110.403 22.064 110.627 22.016 110.835 21.92C111.043 21.808 111.211 21.648 111.339 21.44C111.467 21.232 111.531 20.976 111.531 20.672V17.464H113.235ZM118.254 17.464V18.744H114.814V17.464H118.254ZM115.406 16.232H116.926V21.832C116.926 22.088 116.97 22.272 117.058 22.384C117.146 22.48 117.29 22.528 117.49 22.528C117.626 22.528 117.75 22.52 117.862 22.504C117.974 22.488 118.062 22.472 118.126 22.456L118.39 23.72C118.278 23.768 118.118 23.816 117.91 23.864C117.702 23.912 117.45 23.944 117.154 23.96C116.626 23.992 116.19 23.92 115.846 23.744C115.518 23.568 115.27 23.304 115.102 22.952C114.95 22.6 114.874 22.168 114.874 21.656V16.232H115.406ZM124.373 17.464V23.944H122.857V17.464H124.373ZM123.629 16.528C123.357 16.528 123.125 16.44 122.933 16.264C122.741 16.088 122.645 15.88 122.645 15.64C122.645 15.4 122.741 15.192 122.933 15.016C123.125 14.84 123.357 14.752 123.629 14.752C123.885 14.752 124.109 14.84 124.301 15.016C124.493 15.192 124.589 15.4 124.589 15.64C124.589 15.88 124.493 16.088 124.301 16.264C124.109 16.44 123.885 16.528 123.629 16.528ZM130.479 17.464V18.744H127.039V17.464H130.479ZM127.631 16.232H129.151V21.832C129.151 22.088 129.195 22.272 129.283 22.384C129.371 22.48 129.515 22.528 129.715 22.528C129.851 22.528 129.975 22.52 130.087 22.504C130.199 22.488 130.287 22.472 130.351 22.456L130.615 23.72C130.503 23.768 130.343 23.816 130.135 23.864C129.927 23.912 129.675 23.944 129.379 23.96C128.851 23.992 128.415 23.92 128.071 23.744C127.743 23.568 127.495 23.304 127.327 22.952C127.175 22.6 127.099 22.168 127.099 21.656V16.232H127.631ZM140.59 20.584C140.59 20.696 140.582 20.808 140.566 20.92H135.07C135.086 21.368 135.222 21.728 135.478 22C135.75 22.256 136.086 22.384 136.486 22.384C137.062 22.384 137.458 22.128 137.674 21.616H140.446C140.35 22.064 140.15 22.472 139.846 22.84C139.542 23.192 139.15 23.472 138.67 23.68C138.19 23.888 137.65 23.992 137.05 23.992C136.33 23.992 135.694 23.848 135.142 23.56C134.59 23.272 134.158 22.864 133.846 22.336C133.534 21.808 133.378 21.192 133.378 20.488C133.378 19.784 133.534 19.168 133.846 18.64C134.158 18.112 134.59 17.704 135.142 17.416C135.694 17.128 136.33 16.984 137.05 16.984C137.754 16.984 138.374 17.12 138.91 17.392C139.446 17.664 139.862 18.056 140.158 18.568C140.446 19.08 140.59 19.784 140.59 20.584ZM138.814 19.936C138.814 19.552 138.694 19.24 138.454 19C138.214 18.76 137.906 18.64 137.53 18.64C137.138 18.64 136.822 18.76 136.582 19C136.342 19.224 136.206 19.536 136.174 19.936H138.814ZM146.022 17.464V18.744H142.582V17.464H146.022ZM143.174 16.232H144.694V21.832C144.694 22.088 144.738 22.272 144.826 22.384C144.914 22.48 145.058 22.528 145.258 22.528C145.394 22.528 145.518 22.52 145.63 22.504C145.742 22.488 145.83 22.472 145.894 22.456L146.158 23.72C146.046 23.768 145.886 23.816 145.678 23.864C145.47 23.912 145.218 23.944 144.922 23.96C144.394 23.992 143.958 23.92 143.614 23.744C143.286 23.568 143.038 23.304 142.87 22.952C142.718 22.6 142.642 22.168 142.642 21.656V16.232H143.174ZM158.09 17.464V23.944H156.574V17.464H158.09ZM157.346 16.528C157.074 16.528 156.842 16.44 156.65 16.264C156.458 16.088 156.362 15.88 156.362 15.64C156.362 15.4 156.458 15.192 156.65 15.016C156.842 14.84 157.074 14.752 157.346 14.752C157.602 14.752 157.826 14.84 158.018 15.016C158.21 15.192 158.306 15.4 158.306 15.64C158.306 15.88 158.21 16.088 158.018 16.264C157.826 16.44 157.602 16.528 157.346 16.528ZM164.196 17.464V18.744H160.756V17.464H164.196ZM161.348 16.232H162.868V21.832C162.868 22.088 162.912 22.272 163 22.384C163.088 22.48 163.232 22.528 163.432 22.528C163.568 22.528 163.692 22.52 163.804 22.504C163.916 22.488 164.004 22.472 164.068 22.456L164.332 23.72C164.22 23.768 164.06 23.816 163.852 23.864C163.644 23.912 163.392 23.944 163.096 23.96C162.568 23.992 162.132 23.92 161.788 23.744C161.46 23.568 161.212 23.304 161.044 22.952C160.892 22.6 160.816 22.168 160.816 21.656V16.232H161.348ZM173.763 17.464V23.944H172.247V17.464H173.763ZM173.019 16.528C172.747 16.528 172.515 16.44 172.323 16.264C172.131 16.088 172.035 15.88 172.035 15.64C172.035 15.4 172.131 15.192 172.323 15.016C172.515 14.84 172.747 14.752 173.019 14.752C173.275 14.752 173.499 14.84 173.691 15.016C173.883 15.192 173.979 15.4 173.979 15.64C173.979 15.88 173.883 16.088 173.691 16.264C173.499 16.44 173.275 16.528 173.019 16.528ZM178.805 23.992C178.165 23.992 177.605 23.848 177.125 23.56C176.645 23.272 176.269 22.864 175.997 22.336C175.725 21.808 175.589 21.192 175.589 20.488C175.589 19.8 175.725 19.192 175.997 18.664C176.285 18.136 176.669 17.728 177.149 17.44C177.645 17.152 178.205 17.008 178.829 17.008C179.325 17.008 179.757 17.096 180.125 17.272C180.509 17.432 180.813 17.656 181.037 17.944C181.261 18.232 181.389 18.552 181.421 18.904H179.977C179.913 18.664 179.781 18.464 179.581 18.304C179.381 18.144 179.117 18.064 178.789 18.064C178.437 18.064 178.141 18.176 177.901 18.4C177.661 18.624 177.541 19.008 177.541 19.552V21.424C177.541 21.968 177.661 22.352 177.901 22.576C178.141 22.8 178.437 22.912 178.789 22.912C179.117 22.912 179.381 22.832 179.581 22.672C179.781 22.512 179.913 22.312 179.977 22.072H181.421C181.389 22.424 181.261 22.744 181.037 23.032C180.813 23.32 180.509 23.552 180.125 23.728C179.741 23.904 179.301 23.992 178.805 23.992ZM183.159 14.8H184.679V23.944H183.159V14.8Z" fill="black"/>
</svg> 