<svg width="300" height="400" viewBox="0 0 300 400" fill="none" xmlns="http://www.w3.org/2000/svg">
  <rect width="300" height="400" rx="8" fill="#FAF7F5"/>
  <rect x="20" y="20" width="260" height="80" rx="4" fill="#F1EBE7"/>
  <rect x="100" y="40" width="100" height="8" rx="2" fill="#6B7280"/>
  <rect x="80" y="60" width="140" height="8" rx="2" fill="#6B7280"/>
  
  <line x1="20" y1="120" x2="280" y2="120" stroke="#D1D5DB" strokeWidth="2"/>
  
  <rect x="20" y="140" width="180" height="6" rx="2" fill="#4B5563"/>
  <rect x="20" y="156" width="100" height="4" rx="1" fill="#9CA3AF"/>
  <rect x="240" y="146" width="40" height="6" rx="2" fill="#4B5563"/>
  
  <rect x="20" y="180" width="180" height="6" rx="2" fill="#4B5563"/>
  <rect x="20" y="196" width="120" height="4" rx="1" fill="#9CA3AF"/>
  <rect x="240" y="186" width="40" height="6" rx="2" fill="#4B5563"/>
  
  <rect x="20" y="220" width="180" height="6" rx="2" fill="#4B5563"/>
  <rect x="20" y="236" width="90" height="4" rx="1" fill="#9CA3AF"/>
  <rect x="240" y="226" width="40" height="6" rx="2" fill="#4B5563"/>
  
  <line x1="20" y1="270" x2="280" y2="270" stroke="#D1D5DB" strokeWidth="2"/>
  
  <rect x="20" y="290" width="180" height="6" rx="2" fill="#4B5563"/>
  <rect x="20" y="306" width="110" height="4" rx="1" fill="#9CA3AF"/>
  <rect x="240" y="296" width="40" height="6" rx="2" fill="#4B5563"/>
  
  <rect x="20" y="330" width="180" height="6" rx="2" fill="#4B5563"/>
  <rect x="20" y="346" width="100" height="4" rx="1" fill="#9CA3AF"/>
  <rect x="240" y="336" width="40" height="6" rx="2" fill="#4B5563"/>
</svg> 